<?xml version="1.0" standalone="no"?><svg xmlns="http://www.w3.org/2000/svg" viewBox="0 0 1440 320"><path fill="#00cba9" fill-opacity="1" d="M0,224L26.7,218.7C53.3,213,107,203,160,165.3C213.3,128,267,64,320,37.3C373.3,11,427,21,480,32C533.3,43,587,53,640,96C693.3,139,747,213,800,250.7C853.3,288,907,288,960,272C1013.3,256,1067,224,1120,224C1173.3,224,1227,256,1280,277.3C1333.3,299,1387,309,1413,314.7L1440,320L1440,0L1413.3,0C1386.7,0,1333,0,1280,0C1226.7,0,1173,0,1120,0C1066.7,0,1013,0,960,0C906.7,0,853,0,800,0C746.7,0,693,0,640,0C586.7,0,533,0,480,0C426.7,0,373,0,320,0C266.7,0,213,0,160,0C106.7,0,53,0,27,0L0,0Z"></path></svg>